<svg xmlns="http://www.w3.org/2000/svg" xmlns:xlink="http://www.w3.org/1999/xlink" width="800" zoomAndPan="magnify" viewBox="0 0 600 187.499995" height="250" preserveAspectRatio="xMidYMid meet" version="1.0"><defs><g/><clipPath id="68e495473a"><path d="M 0.796875 0 L 599.199219 0 L 599.199219 187 L 0.796875 187 Z M 0.796875 0 " clip-rule="nonzero"/></clipPath><clipPath id="f23304e0db"><path d="M 176 117 L 190.667969 117 L 190.667969 127 L 176 127 Z M 176 117 " clip-rule="nonzero"/></clipPath><clipPath id="baf8951f8f"><path d="M 123 153 L 136 153 L 136 168.632812 L 123 168.632812 Z M 123 153 " clip-rule="nonzero"/></clipPath><clipPath id="be1e269cb9"><path d="M 53 45.957031 L 156 45.957031 L 156 91 L 53 91 Z M 53 45.957031 " clip-rule="nonzero"/></clipPath><clipPath id="fc208e81ae"><path d="M 47.050781 50 L 91 50 L 91 126 L 47.050781 126 Z M 47.050781 50 " clip-rule="nonzero"/></clipPath><clipPath id="1610a5e834"><rect x="0" width="360" y="0" height="99"/></clipPath></defs><g clip-path="url(#68e495473a)"><path fill="#ffffff" d="M 0.796875 0 L 599.203125 0 L 599.203125 187 L 0.796875 187 Z M 0.796875 0 " fill-opacity="1" fill-rule="nonzero"/><path fill="#ffffff" d="M 0.796875 0 L 599.203125 0 L 599.203125 187 L 0.796875 187 Z M 0.796875 0 " fill-opacity="1" fill-rule="nonzero"/></g><path fill="#219dd9" d="M 151.601562 112.128906 C 147.234375 118.289062 139.421875 123.011719 132.394531 125.40625 L 137.53125 144.632812 L 137.617188 144.949219 C 144.894531 143.496094 154.371094 144.113281 160.875 146.820312 Z M 151.601562 112.128906 " fill-opacity="1" fill-rule="nonzero"/><g clip-path="url(#f23304e0db)"><path fill="#219dd9" d="M 190.46875 120.238281 C 189.976562 118.382812 188.074219 117.28125 186.222656 117.777344 L 179.046875 119.699219 C 177.195312 120.195312 176.09375 122.101562 176.589844 123.957031 C 177.003906 125.511719 178.40625 126.539062 179.941406 126.539062 C 180.238281 126.539062 180.539062 126.5 180.839844 126.417969 L 188.015625 124.496094 C 189.867188 124 190.964844 122.09375 190.46875 120.238281 Z M 190.46875 120.238281 " fill-opacity="1" fill-rule="nonzero"/></g><path fill="#219dd9" d="M 178.144531 102.492188 C 176.484375 101.53125 174.359375 102.101562 173.402344 103.765625 L 170.992188 107.957031 C 170.035156 109.621094 170.605469 111.746094 172.265625 112.707031 C 172.8125 113.023438 173.40625 113.171875 173.996094 113.171875 C 175.195312 113.171875 176.363281 112.546875 177.003906 111.429688 L 179.417969 107.242188 C 180.375 105.578125 179.804688 103.449219 178.144531 102.492188 Z M 178.144531 102.492188 " fill-opacity="1" fill-rule="nonzero"/><g clip-path="url(#baf8951f8f)"><path fill="#219dd9" d="M 132.960938 168.472656 C 133.898438 168.222656 134.683594 167.613281 135.175781 166.761719 C 135.660156 165.914062 135.792969 164.933594 135.542969 164.007812 L 132.679688 153.351562 L 123.042969 155.941406 L 128.105469 166.050781 C 128.855469 167.550781 130.304688 169.1875 132.960938 168.472656 Z M 132.960938 168.472656 " fill-opacity="1" fill-rule="nonzero"/></g><g clip-path="url(#be1e269cb9)"><path fill="#203b72" d="M 55.132812 45.972656 C 54.609375 45.972656 54.101562 46.023438 53.605469 46.121094 L 104.519531 90.988281 L 155.429688 46.117188 C 154.9375 46.023438 154.429688 45.972656 153.910156 45.972656 Z M 55.132812 45.972656 " fill-opacity="1" fill-rule="nonzero"/></g><path fill="#219dd9" d="M 183.203125 134.609375 C 181.542969 133.652344 179.417969 134.222656 178.460938 135.886719 C 177.503906 137.550781 178.074219 139.675781 179.734375 140.636719 L 183.917969 143.050781 C 184.460938 143.367188 185.058594 143.515625 185.644531 143.515625 C 186.847656 143.515625 188.015625 142.890625 188.65625 141.777344 C 189.613281 140.113281 189.042969 137.984375 187.382812 137.027344 Z M 183.203125 134.609375 " fill-opacity="1" fill-rule="nonzero"/><path fill="#203b72" d="M 113.039062 92.742188 L 106.8125 98.230469 C 106.15625 98.808594 105.339844 99.097656 104.519531 99.097656 C 103.703125 99.097656 102.882812 98.808594 102.226562 98.230469 L 95.996094 92.738281 L 53.605469 130.101562 C 54.101562 130.195312 54.609375 130.25 55.132812 130.25 L 104.683594 130.25 C 106.019531 127.160156 108.691406 124.6875 112.183594 123.746094 L 127.277344 119.703125 C 130.992188 118.703125 134.816406 117.128906 138.46875 115.152344 Z M 113.039062 92.742188 " fill-opacity="1" fill-rule="nonzero"/><g clip-path="url(#fc208e81ae)"><path fill="#203b72" d="M 90.742188 88.109375 L 47.96875 50.414062 C 47.429688 51.488281 47.128906 52.699219 47.128906 53.980469 L 47.128906 122.226562 C 47.128906 123.511719 47.433594 124.726562 47.96875 125.804688 Z M 90.742188 88.109375 " fill-opacity="1" fill-rule="nonzero"/></g><path fill="#219dd9" d="M 113.980469 130.464844 C 111.613281 131.101562 110.203125 133.546875 110.839844 135.914062 L 113.707031 146.636719 C 114.34375 149.011719 116.785156 150.425781 119.148438 149.785156 L 130.878906 146.632812 L 125.71875 127.316406 Z M 113.980469 130.464844 " fill-opacity="1" fill-rule="nonzero"/><path fill="#203b72" d="M 118.292969 88.109375 L 143.808594 110.597656 C 144.628906 109.777344 145.34375 108.941406 145.941406 108.101562 L 151.207031 100.667969 C 151.308594 100.460938 151.414062 100.257812 151.53125 100.054688 C 152.921875 97.644531 155.167969 95.917969 157.855469 95.195312 C 158.734375 94.960938 159.640625 94.839844 160.550781 94.839844 C 161.011719 94.839844 161.464844 94.871094 161.914062 94.929688 L 161.914062 53.980469 C 161.914062 52.699219 161.609375 51.484375 161.070312 50.410156 Z M 118.292969 88.109375 " fill-opacity="1" fill-rule="nonzero"/><path fill="#219dd9" d="M 159.648438 101.914062 C 157.796875 102.410156 156.699219 104.316406 157.195312 106.171875 L 168.691406 149.179688 C 169.1875 151.035156 171.089844 152.136719 172.941406 151.640625 C 174.792969 151.144531 175.890625 149.234375 175.394531 147.378906 L 163.902344 104.375 C 163.40625 102.519531 161.503906 101.417969 159.648438 101.914062 Z M 159.648438 101.914062 " fill-opacity="1" fill-rule="nonzero"/><g transform="matrix(1, 0, 0, 1, 188, 38)"><g clip-path="url(#1610a5e834)"><g fill="#000000" fill-opacity="1"><g transform="translate(0.704509, 73.785918)"><g><path d="M 59.9375 -49.09375 L 59.9375 0 L 47.984375 0 L 47.984375 -29.4375 L 37 0 L 27.34375 0 L 16.296875 -29.515625 L 16.296875 0 L 4.34375 0 L 4.34375 -49.09375 L 18.46875 -49.09375 L 32.234375 -15.109375 L 45.875 -49.09375 Z M 59.9375 -49.09375 "/></g></g></g><g fill="#000000" fill-opacity="1"><g transform="translate(63.366845, 73.785918)"><g><path d="M 1.953125 -19.578125 C 1.953125 -23.585938 2.707031 -27.109375 4.21875 -30.140625 C 5.738281 -33.171875 7.804688 -35.5 10.421875 -37.125 C 13.035156 -38.757812 15.945312 -39.578125 19.15625 -39.578125 C 21.914062 -39.578125 24.332031 -39.019531 26.40625 -37.90625 C 28.476562 -36.789062 30.070312 -35.320312 31.1875 -33.5 L 31.1875 -39.03125 L 43.15625 -39.03125 L 43.15625 0 L 31.1875 0 L 31.1875 -5.53125 C 30.019531 -3.707031 28.398438 -2.234375 26.328125 -1.109375 C 24.253906 0.00390625 21.84375 0.5625 19.09375 0.5625 C 15.925781 0.5625 13.035156 -0.265625 10.421875 -1.921875 C 7.804688 -3.578125 5.738281 -5.929688 4.21875 -8.984375 C 2.707031 -12.035156 1.953125 -15.566406 1.953125 -19.578125 Z M 31.1875 -19.515625 C 31.1875 -22.492188 30.359375 -24.84375 28.703125 -26.5625 C 27.046875 -28.289062 25.03125 -29.15625 22.65625 -29.15625 C 20.28125 -29.15625 18.265625 -28.304688 16.609375 -26.609375 C 14.953125 -24.910156 14.125 -22.566406 14.125 -19.578125 C 14.125 -16.597656 14.953125 -14.234375 16.609375 -12.484375 C 18.265625 -10.734375 20.28125 -9.859375 22.65625 -9.859375 C 25.03125 -9.859375 27.046875 -10.71875 28.703125 -12.4375 C 30.359375 -14.164062 31.1875 -16.523438 31.1875 -19.515625 Z M 31.1875 -19.515625 "/></g></g></g><g fill="#000000" fill-opacity="1"><g transform="translate(109.314485, 73.785918)"><g><path d="M 16.296875 -32.515625 C 17.691406 -34.660156 19.4375 -36.347656 21.53125 -37.578125 C 23.632812 -38.816406 25.96875 -39.4375 28.53125 -39.4375 L 28.53125 -26.78125 L 25.25 -26.78125 C 22.257812 -26.78125 20.019531 -26.140625 18.53125 -24.859375 C 17.039062 -23.578125 16.296875 -21.328125 16.296875 -18.109375 L 16.296875 0 L 4.34375 0 L 4.34375 -39.03125 L 16.296875 -39.03125 Z M 16.296875 -32.515625 "/></g></g></g><g fill="#000000" fill-opacity="1"><g transform="translate(137.708206, 73.785918)"><g><path d="M 28.1875 0 L 16.296875 -16.359375 L 16.296875 0 L 4.34375 0 L 4.34375 -51.75 L 16.296875 -51.75 L 16.296875 -23.15625 L 28.109375 -39.03125 L 42.875 -39.03125 L 26.640625 -19.4375 L 43.015625 0 Z M 28.1875 0 "/></g></g></g><g fill="#000000" fill-opacity="1"><g transform="translate(179.389743, 73.785918)"><g><path d="M 41.125 -20.140625 C 41.125 -19.023438 41.050781 -17.859375 40.90625 -16.640625 L 13.84375 -16.640625 C 14.03125 -14.222656 14.8125 -12.367188 16.1875 -11.078125 C 17.5625 -9.796875 19.253906 -9.15625 21.265625 -9.15625 C 24.242188 -9.15625 26.316406 -10.414062 27.484375 -12.9375 L 40.21875 -12.9375 C 39.5625 -10.375 38.378906 -8.066406 36.671875 -6.015625 C 34.972656 -3.960938 32.84375 -2.351562 30.28125 -1.1875 C 27.71875 -0.0195312 24.851562 0.5625 21.6875 0.5625 C 17.863281 0.5625 14.457031 -0.253906 11.46875 -1.890625 C 8.488281 -3.523438 6.15625 -5.851562 4.46875 -8.875 C 2.789062 -11.90625 1.953125 -15.453125 1.953125 -19.515625 C 1.953125 -23.566406 2.78125 -27.109375 4.4375 -30.140625 C 6.09375 -33.171875 8.410156 -35.5 11.390625 -37.125 C 14.378906 -38.757812 17.8125 -39.578125 21.6875 -39.578125 C 25.457031 -39.578125 28.8125 -38.785156 31.75 -37.203125 C 34.6875 -35.617188 36.984375 -33.359375 38.640625 -30.421875 C 40.296875 -27.484375 41.125 -24.054688 41.125 -20.140625 Z M 28.890625 -23.296875 C 28.890625 -25.335938 28.1875 -26.960938 26.78125 -28.171875 C 25.382812 -29.390625 23.640625 -30 21.546875 -30 C 19.535156 -30 17.84375 -29.414062 16.46875 -28.25 C 15.09375 -27.082031 14.242188 -25.429688 13.921875 -23.296875 Z M 28.890625 -23.296875 "/></g></g></g><g fill="#000000" fill-opacity="1"><g transform="translate(220.931436, 73.785918)"><g><path d="M 26.09375 -10.140625 L 26.09375 0 L 20 0 C 15.664062 0 12.285156 -1.054688 9.859375 -3.171875 C 7.429688 -5.296875 6.21875 -8.757812 6.21875 -13.5625 L 6.21875 -29.09375 L 1.46875 -29.09375 L 1.46875 -39.03125 L 6.21875 -39.03125 L 6.21875 -48.53125 L 18.1875 -48.53125 L 18.1875 -39.03125 L 26.015625 -39.03125 L 26.015625 -29.09375 L 18.1875 -29.09375 L 18.1875 -13.421875 C 18.1875 -12.253906 18.460938 -11.414062 19.015625 -10.90625 C 19.578125 -10.394531 20.515625 -10.140625 21.828125 -10.140625 Z M 26.09375 -10.140625 "/></g></g></g><g fill="#000000" fill-opacity="1"><g transform="translate(247.786574, 73.785918)"><g><path d="M 10.34375 -43.078125 C 8.25 -43.078125 6.535156 -43.691406 5.203125 -44.921875 C 3.878906 -46.160156 3.21875 -47.691406 3.21875 -49.515625 C 3.21875 -51.378906 3.878906 -52.925781 5.203125 -54.15625 C 6.535156 -55.394531 8.25 -56.015625 10.34375 -56.015625 C 12.394531 -56.015625 14.085938 -55.394531 15.421875 -54.15625 C 16.753906 -52.925781 17.421875 -51.378906 17.421875 -49.515625 C 17.421875 -47.691406 16.753906 -46.160156 15.421875 -44.921875 C 14.085938 -43.691406 12.394531 -43.078125 10.34375 -43.078125 Z M 16.296875 -39.03125 L 16.296875 0 L 4.34375 0 L 4.34375 -39.03125 Z M 16.296875 -39.03125 "/></g></g></g><g fill="#000000" fill-opacity="1"><g transform="translate(266.878798, 73.785918)"><g><path d="M 28.109375 -39.4375 C 32.679688 -39.4375 36.332031 -37.957031 39.0625 -35 C 41.789062 -32.039062 43.15625 -27.972656 43.15625 -22.796875 L 43.15625 0 L 31.265625 0 L 31.265625 -21.1875 C 31.265625 -23.800781 30.585938 -25.828125 29.234375 -27.265625 C 27.878906 -28.710938 26.0625 -29.4375 23.78125 -29.4375 C 21.5 -29.4375 19.679688 -28.710938 18.328125 -27.265625 C 16.972656 -25.828125 16.296875 -23.800781 16.296875 -21.1875 L 16.296875 0 L 4.34375 0 L 4.34375 -39.03125 L 16.296875 -39.03125 L 16.296875 -33.84375 C 17.503906 -35.570312 19.132812 -36.9375 21.1875 -37.9375 C 23.238281 -38.9375 25.546875 -39.4375 28.109375 -39.4375 Z M 28.109375 -39.4375 "/></g></g></g><g fill="#000000" fill-opacity="1"><g transform="translate(312.476775, 73.785918)"><g><path d="M 19.15625 -39.578125 C 21.914062 -39.578125 24.332031 -39.019531 26.40625 -37.90625 C 28.476562 -36.789062 30.070312 -35.320312 31.1875 -33.5 L 31.1875 -39.03125 L 43.15625 -39.03125 L 43.15625 -0.0625 C 43.15625 3.519531 42.441406 6.769531 41.015625 9.6875 C 39.597656 12.601562 37.429688 14.921875 34.515625 16.640625 C 31.597656 18.367188 27.972656 19.234375 23.640625 19.234375 C 17.859375 19.234375 13.171875 17.867188 9.578125 15.140625 C 5.992188 12.410156 3.941406 8.71875 3.421875 4.0625 L 15.25 4.0625 C 15.625 5.550781 16.507812 6.722656 17.90625 7.578125 C 19.300781 8.441406 21.023438 8.875 23.078125 8.875 C 25.546875 8.875 27.515625 8.160156 28.984375 6.734375 C 30.453125 5.316406 31.1875 3.050781 31.1875 -0.0625 L 31.1875 -5.59375 C 30.019531 -3.78125 28.410156 -2.300781 26.359375 -1.15625 C 24.316406 -0.0078125 21.914062 0.5625 19.15625 0.5625 C 15.945312 0.5625 13.035156 -0.265625 10.421875 -1.921875 C 7.804688 -3.578125 5.738281 -5.929688 4.21875 -8.984375 C 2.707031 -12.035156 1.953125 -15.566406 1.953125 -19.578125 C 1.953125 -23.585938 2.707031 -27.109375 4.21875 -30.140625 C 5.738281 -33.171875 7.804688 -35.5 10.421875 -37.125 C 13.035156 -38.757812 15.945312 -39.578125 19.15625 -39.578125 Z M 31.1875 -19.515625 C 31.1875 -22.492188 30.359375 -24.84375 28.703125 -26.5625 C 27.046875 -28.289062 25.03125 -29.15625 22.65625 -29.15625 C 20.28125 -29.15625 18.265625 -28.304688 16.609375 -26.609375 C 14.953125 -24.910156 14.125 -22.566406 14.125 -19.578125 C 14.125 -16.597656 14.953125 -14.234375 16.609375 -12.484375 C 18.265625 -10.734375 20.28125 -9.859375 22.65625 -9.859375 C 25.03125 -9.859375 27.046875 -10.71875 28.703125 -12.4375 C 30.359375 -14.164062 31.1875 -16.523438 31.1875 -19.515625 Z M 31.1875 -19.515625 "/></g></g></g></g></g></svg>