<svg xmlns="http://www.w3.org/2000/svg" xmlns:xlink="http://www.w3.org/1999/xlink" width="800" zoomAndPan="magnify" viewBox="0 0 600 187.499995" height="250" preserveAspectRatio="xMidYMid meet" version="1.0"><defs><g/><clipPath id="693ee74be1"><path d="M 0.796875 0 L 599.199219 0 L 599.199219 187 L 0.796875 187 Z M 0.796875 0 " clip-rule="nonzero"/></clipPath><clipPath id="6215a05988"><path d="M 143 61 L 189.9375 61 L 189.9375 108 L 143 108 Z M 143 61 " clip-rule="nonzero"/></clipPath><clipPath id="62425700a4"><path d="M 96 25.625 L 134 25.625 L 134 57 L 96 57 Z M 96 25.625 " clip-rule="nonzero"/></clipPath><clipPath id="d91be5ed98"><path d="M 56.042969 55 L 103 55 L 103 102 L 56.042969 102 Z M 56.042969 55 " clip-rule="nonzero"/></clipPath></defs><g clip-path="url(#693ee74be1)"><path fill="#ffffff" d="M 0.796875 0 L 599.203125 0 L 599.203125 187 L 0.796875 187 Z M 0.796875 0 " fill-opacity="1" fill-rule="nonzero"/><path fill="#ffffff" d="M 0.796875 0 L 599.203125 0 L 599.203125 187 L 0.796875 187 Z M 0.796875 0 " fill-opacity="1" fill-rule="nonzero"/></g><path fill="#e6e6e6" d="M 143.710938 124.753906 C 143.3125 124.753906 142.914062 124.59375 142.597656 124.277344 C 141.957031 123.644531 142.039062 122.613281 142.675781 121.976562 L 162.042969 104.0625 C 162.679688 103.425781 163.714844 103.507812 164.273438 104.140625 C 164.910156 104.773438 164.832031 105.726562 164.195312 106.359375 L 144.828125 124.355469 C 144.507812 124.59375 144.109375 124.753906 143.710938 124.753906 Z M 113.984375 123.167969 C 113.585938 123.167969 113.265625 123.007812 112.949219 122.769531 L 85.613281 99.78125 C 84.894531 99.226562 84.816406 98.273438 85.371094 97.558594 C 85.929688 96.925781 86.964844 96.847656 87.683594 97.402344 L 115.019531 120.390625 C 115.65625 120.945312 115.816406 121.898438 115.179688 122.613281 C 114.859375 123.007812 114.460938 123.167969 113.984375 123.167969 Z M 145.304688 82.972656 C 145.226562 82.972656 145.066406 82.972656 144.988281 82.972656 L 99 72.351562 C 98.125 72.191406 97.644531 71.320312 97.804688 70.449219 C 97.964844 69.65625 98.839844 69.101562 99.71875 69.257812 L 145.703125 79.882812 C 146.5 80.039062 147.058594 80.914062 146.898438 81.785156 C 146.738281 82.496094 146.023438 82.972656 145.304688 82.972656 Z M 145.304688 82.972656 " fill-opacity="1" fill-rule="evenodd"/><g clip-path="url(#6215a05988)"><path fill="#9900cc" d="M 166.824219 107.074219 C 160.609375 107.074219 154.871094 104.695312 150.484375 100.335938 C 146.101562 95.976562 143.710938 90.265625 143.710938 84.082031 C 143.710938 77.898438 146.101562 72.113281 150.484375 67.753906 C 154.871094 63.472656 160.609375 61.09375 166.824219 61.09375 C 179.574219 61.09375 189.9375 71.398438 189.9375 84.082031 C 189.9375 96.769531 179.574219 107.074219 166.824219 107.074219 Z M 166.824219 107.074219 " fill-opacity="1" fill-rule="evenodd"/></g><path fill="#ffe600" d="M 166.824219 107.074219 C 160.289062 107.074219 154.3125 104.535156 150.007812 99.9375 C 149.449219 99.304688 149.449219 98.351562 150.007812 97.71875 C 152.398438 95.339844 155.1875 94.070312 158.058594 94.070312 L 159.652344 94.070312 C 160.210938 94.070312 160.6875 94.390625 161.007812 94.785156 C 162.359375 96.847656 164.75 98.035156 167.382812 98.035156 C 169.691406 98.035156 172.164062 96.769531 173.4375 94.785156 C 173.757812 94.390625 174.234375 94.070312 174.792969 94.070312 L 175.351562 94.070312 C 178.460938 94.070312 181.410156 95.421875 183.480469 97.796875 C 183.960938 98.433594 183.960938 99.382812 183.402344 99.9375 C 179.019531 104.617188 173.28125 107.074219 166.824219 107.074219 Z M 166.824219 107.074219 " fill-opacity="1" fill-rule="evenodd"/><path fill="#ffcc99" d="M 166.824219 94.390625 C 160.765625 94.390625 155.984375 89.632812 155.984375 83.527344 L 155.984375 79.566406 C 155.984375 73.699219 160.925781 68.703125 166.824219 68.703125 C 172.722656 68.703125 177.742188 73.699219 177.742188 79.566406 L 177.742188 83.527344 C 177.742188 89.632812 172.960938 94.390625 166.824219 94.390625 Z M 166.824219 94.390625 " fill-opacity="1" fill-rule="evenodd"/><g clip-path="url(#62425700a4)"><path fill="#009933" d="M 122.75 56.652344 C 122.035156 56.652344 121.394531 56.496094 120.757812 56.175781 L 99.796875 46.664062 C 98.441406 46.109375 97.488281 45.078125 97.089844 43.730469 C 96.691406 42.542969 96.769531 41.113281 97.328125 39.847656 L 102.429688 28.746094 C 102.984375 27.480469 103.941406 26.527344 105.296875 25.972656 C 106.570312 25.496094 108.007812 25.578125 109.28125 26.050781 C 109.28125 26.050781 109.28125 26.050781 109.28125 26.132812 L 130.003906 35.644531 C 131.277344 36.199219 132.234375 37.152344 132.792969 38.5 C 133.269531 39.765625 133.191406 41.195312 132.714844 42.460938 C 132.714844 42.460938 132.714844 42.460938 132.632812 42.460938 L 127.375 53.878906 C 127.375 53.878906 127.375 53.878906 127.292969 53.878906 C 126.734375 54.988281 125.699219 55.941406 124.503906 56.335938 C 123.945312 56.496094 123.386719 56.652344 122.75 56.652344 Z M 100.277344 41.113281 C 100.035156 41.671875 100.035156 42.226562 100.195312 42.78125 C 100.277344 43.253906 100.59375 43.574219 101.074219 43.730469 C 101.074219 43.730469 101.074219 43.730469 101.074219 43.808594 L 122.113281 53.324219 C 122.511719 53.480469 122.988281 53.480469 123.46875 53.324219 C 123.945312 53.164062 124.265625 52.847656 124.503906 52.453125 L 129.765625 41.113281 C 130.003906 40.640625 130.003906 40.085938 129.84375 39.609375 C 129.605469 39.054688 129.285156 38.738281 128.726562 38.5 L 108.007812 28.984375 C 107.527344 28.746094 106.96875 28.746094 106.414062 28.90625 C 105.933594 29.144531 105.535156 29.460938 105.375 30.015625 Z M 100.277344 41.113281 " fill-opacity="1" fill-rule="evenodd"/></g><path fill="#ff3131" d="M 136.21875 71.714844 C 135.503906 71.714844 134.785156 71.558594 134.066406 71.242188 C 134.066406 71.242188 134.066406 71.242188 133.988281 71.242188 L 113.347656 61.726562 C 112.070312 61.171875 111.035156 60.140625 110.558594 58.875 C 110.078125 57.605469 110.078125 56.175781 110.636719 54.910156 C 110.636719 54.910156 110.636719 54.910156 110.636719 54.828125 L 115.976562 43.492188 C 115.976562 43.492188 115.976562 43.492188 115.976562 43.414062 C 116.535156 42.304688 117.570312 41.433594 118.847656 40.957031 C 120.121094 40.558594 121.476562 40.558594 122.589844 41.113281 L 143.550781 50.628906 C 143.632812 50.628906 143.632812 50.707031 143.632812 50.707031 C 146.023438 51.898438 147.058594 54.910156 145.941406 57.445312 C 145.941406 57.445312 145.941406 57.527344 145.941406 57.527344 L 140.921875 68.625 C 140.363281 69.894531 139.328125 70.84375 138.054688 71.320312 C 137.496094 71.558594 136.859375 71.714844 136.21875 71.714844 Z M 135.34375 68.308594 C 135.820312 68.546875 136.378906 68.546875 136.9375 68.386719 C 137.414062 68.148438 137.8125 67.832031 137.972656 67.277344 L 143.074219 56.175781 C 143.550781 55.066406 142.996094 53.957031 142.199219 53.480469 L 121.238281 44.046875 C 121.238281 44.046875 121.238281 43.96875 121.238281 43.96875 C 120.839844 43.808594 120.359375 43.808594 119.882812 43.96875 C 119.402344 44.128906 119.085938 44.445312 118.847656 44.839844 L 113.585938 56.175781 C 113.347656 56.652344 113.347656 57.207031 113.507812 57.761719 C 113.746094 58.238281 114.0625 58.636719 114.621094 58.792969 C 114.621094 58.792969 114.621094 58.792969 114.621094 58.875 Z M 135.34375 68.308594 " fill-opacity="1" fill-rule="evenodd"/><path fill="#9900cc" d="M 128.089844 160.980469 C 121.875 160.980469 116.054688 158.605469 111.671875 154.242188 C 107.371094 149.882812 104.976562 144.175781 104.976562 137.992188 C 104.976562 131.808594 107.371094 126.019531 111.671875 121.660156 C 116.054688 117.378906 121.875 115 128.089844 115 C 140.84375 115 151.203125 125.308594 151.203125 137.992188 C 151.203125 150.675781 140.84375 160.980469 128.089844 160.980469 Z M 128.089844 160.980469 " fill-opacity="1" fill-rule="evenodd"/><path fill="#ffe600" d="M 128.089844 160.980469 C 121.554688 160.980469 115.578125 158.445312 111.195312 153.847656 C 110.636719 153.214844 110.636719 152.261719 111.273438 151.628906 C 113.664062 149.25 116.453125 147.980469 119.246094 147.980469 L 120.839844 147.980469 C 121.394531 147.980469 121.875 148.296875 122.191406 148.695312 C 123.546875 150.753906 126.019531 151.945312 128.570312 151.945312 C 130.878906 151.945312 133.351562 150.675781 134.707031 148.695312 C 134.945312 148.296875 135.503906 147.980469 135.980469 147.980469 L 136.539062 147.980469 C 139.726562 147.980469 142.597656 149.328125 144.667969 151.707031 C 145.226562 152.339844 145.144531 153.292969 144.589844 153.847656 C 140.285156 158.523438 134.546875 160.980469 128.089844 160.980469 Z M 128.089844 160.980469 " fill-opacity="1" fill-rule="evenodd"/><path fill="#ffcc99" d="M 128.089844 148.296875 C 121.953125 148.296875 117.171875 143.542969 117.171875 137.4375 L 117.171875 133.472656 C 117.171875 127.605469 122.191406 122.613281 128.089844 122.613281 C 133.988281 122.613281 138.929688 127.605469 138.929688 133.472656 L 138.929688 137.4375 C 138.929688 143.542969 134.148438 148.296875 128.089844 148.296875 Z M 128.089844 148.296875 " fill-opacity="1" fill-rule="evenodd"/><g clip-path="url(#d91be5ed98)"><path fill="#9900cc" d="M 79.15625 101.523438 C 72.941406 101.523438 67.203125 99.144531 62.816406 94.785156 C 58.433594 90.425781 56.042969 84.71875 56.042969 78.535156 C 56.042969 72.351562 58.433594 66.5625 62.816406 62.203125 C 67.203125 57.921875 72.941406 55.542969 79.15625 55.542969 C 91.90625 55.542969 102.269531 65.847656 102.269531 78.535156 C 102.269531 91.21875 91.90625 101.523438 79.15625 101.523438 Z M 79.15625 101.523438 " fill-opacity="1" fill-rule="evenodd"/></g><path fill="#ffe600" d="M 79.15625 101.523438 C 72.621094 101.523438 66.644531 98.988281 62.339844 94.390625 C 61.78125 93.753906 61.78125 92.804688 62.339844 92.167969 C 64.730469 89.792969 67.519531 88.523438 70.390625 88.523438 L 71.984375 88.523438 C 72.542969 88.523438 73.019531 88.839844 73.339844 89.234375 C 74.691406 91.296875 77.082031 92.488281 79.714844 92.488281 C 82.023438 92.488281 84.496094 91.21875 85.769531 89.234375 C 86.089844 88.839844 86.566406 88.523438 87.125 88.523438 L 87.683594 88.523438 C 90.792969 88.523438 93.742188 89.871094 95.8125 92.25 C 96.292969 92.882812 96.292969 93.835938 95.734375 94.390625 C 91.351562 99.066406 85.613281 101.523438 79.15625 101.523438 Z M 79.15625 101.523438 " fill-opacity="1" fill-rule="evenodd"/><path fill="#ffcc99" d="M 79.15625 88.839844 C 73.097656 88.839844 68.316406 84.082031 68.316406 77.980469 L 68.316406 74.015625 C 68.316406 68.148438 73.257812 63.152344 79.15625 63.152344 C 85.054688 63.152344 90.074219 68.148438 90.074219 74.015625 L 90.074219 77.980469 C 90.074219 84.082031 85.292969 88.839844 79.15625 88.839844 Z M 79.15625 88.839844 " fill-opacity="1" fill-rule="evenodd"/><g fill="#9900cc" fill-opacity="1"><g transform="translate(203.079748, 117.171547)"><g><path d="M 29.375 0 L 19.171875 -18.53125 L 16.296875 -18.53125 L 16.296875 0 L 4.34375 0 L 4.34375 -49.109375 L 24.40625 -49.109375 C 28.28125 -49.109375 31.582031 -48.429688 34.3125 -47.078125 C 37.039062 -45.722656 39.082031 -43.867188 40.4375 -41.515625 C 41.789062 -39.160156 42.46875 -36.535156 42.46875 -33.640625 C 42.46875 -30.378906 41.546875 -27.46875 39.703125 -24.90625 C 37.859375 -22.34375 35.140625 -20.523438 31.546875 -19.453125 L 42.875 0 Z M 16.296875 -27 L 23.71875 -27 C 25.90625 -27 27.546875 -27.535156 28.640625 -28.609375 C 29.742188 -29.679688 30.296875 -31.195312 30.296875 -33.15625 C 30.296875 -35.019531 29.742188 -36.488281 28.640625 -37.5625 C 27.546875 -38.632812 25.90625 -39.171875 23.71875 -39.171875 L 16.296875 -39.171875 Z M 16.296875 -27 "/></g></g></g><g fill="#9900cc" fill-opacity="1"><g transform="translate(247.140723, 117.171547)"><g><path d="M 16.296875 -39.53125 L 16.296875 -29.59375 L 32.3125 -29.59375 L 32.3125 -20.359375 L 16.296875 -20.359375 L 16.296875 -9.578125 L 34.421875 -9.578125 L 34.421875 0 L 4.34375 0 L 4.34375 -49.109375 L 34.421875 -49.109375 L 34.421875 -39.53125 Z M 16.296875 -39.53125 "/></g></g></g><g fill="#9900cc" fill-opacity="1"><g transform="translate(283.438542, 117.171547)"><g><path d="M 36.3125 -49.109375 L 36.3125 -39.53125 L 16.296875 -39.53125 L 16.296875 -29.171875 L 31.265625 -29.171875 L 31.265625 -19.859375 L 16.296875 -19.859375 L 16.296875 0 L 4.34375 0 L 4.34375 -49.109375 Z M 36.3125 -49.109375 "/></g></g></g><g fill="#9900cc" fill-opacity="1"><g transform="translate(320.155984, 117.171547)"><g><path d="M 16.296875 -39.53125 L 16.296875 -29.59375 L 32.3125 -29.59375 L 32.3125 -20.359375 L 16.296875 -20.359375 L 16.296875 -9.578125 L 34.421875 -9.578125 L 34.421875 0 L 4.34375 0 L 4.34375 -49.109375 L 34.421875 -49.109375 L 34.421875 -39.53125 Z M 16.296875 -39.53125 "/></g></g></g><g fill="#9900cc" fill-opacity="1"><g transform="translate(356.453802, 117.171547)"><g><path d="M 29.375 0 L 19.171875 -18.53125 L 16.296875 -18.53125 L 16.296875 0 L 4.34375 0 L 4.34375 -49.109375 L 24.40625 -49.109375 C 28.28125 -49.109375 31.582031 -48.429688 34.3125 -47.078125 C 37.039062 -45.722656 39.082031 -43.867188 40.4375 -41.515625 C 41.789062 -39.160156 42.46875 -36.535156 42.46875 -33.640625 C 42.46875 -30.378906 41.546875 -27.46875 39.703125 -24.90625 C 37.859375 -22.34375 35.140625 -20.523438 31.546875 -19.453125 L 42.875 0 Z M 16.296875 -27 L 23.71875 -27 C 25.90625 -27 27.546875 -27.535156 28.640625 -28.609375 C 29.742188 -29.679688 30.296875 -31.195312 30.296875 -33.15625 C 30.296875 -35.019531 29.742188 -36.488281 28.640625 -37.5625 C 27.546875 -38.632812 25.90625 -39.171875 23.71875 -39.171875 L 16.296875 -39.171875 Z M 16.296875 -27 "/></g></g></g><g fill="#9900cc" fill-opacity="1"><g transform="translate(400.514789, 117.171547)"><g><path d="M 29.375 0 L 19.171875 -18.53125 L 16.296875 -18.53125 L 16.296875 0 L 4.34375 0 L 4.34375 -49.109375 L 24.40625 -49.109375 C 28.28125 -49.109375 31.582031 -48.429688 34.3125 -47.078125 C 37.039062 -45.722656 39.082031 -43.867188 40.4375 -41.515625 C 41.789062 -39.160156 42.46875 -36.535156 42.46875 -33.640625 C 42.46875 -30.378906 41.546875 -27.46875 39.703125 -24.90625 C 37.859375 -22.34375 35.140625 -20.523438 31.546875 -19.453125 L 42.875 0 Z M 16.296875 -27 L 23.71875 -27 C 25.90625 -27 27.546875 -27.535156 28.640625 -28.609375 C 29.742188 -29.679688 30.296875 -31.195312 30.296875 -33.15625 C 30.296875 -35.019531 29.742188 -36.488281 28.640625 -37.5625 C 27.546875 -38.632812 25.90625 -39.171875 23.71875 -39.171875 L 16.296875 -39.171875 Z M 16.296875 -27 "/></g></g></g><g fill="#9900cc" fill-opacity="1"><g transform="translate(444.575742, 117.171547)"><g><path d="M 34.90625 -8.671875 L 16.578125 -8.671875 L 13.640625 0 L 1.125 0 L 18.890625 -49.109375 L 32.734375 -49.109375 L 50.5 0 L 37.84375 0 Z M 31.828125 -17.90625 L 25.75 -35.890625 L 19.734375 -17.90625 Z M 31.828125 -17.90625 "/></g></g></g><g fill="#9900cc" fill-opacity="1"><g transform="translate(494.581496, 117.171547)"><g><path d="M 16.296875 -9.234375 L 31.96875 -9.234375 L 31.96875 0 L 4.34375 0 L 4.34375 -49.109375 L 16.296875 -49.109375 Z M 16.296875 -9.234375 "/></g></g></g><g fill="#9900cc" fill-opacity="1"><g transform="translate(526.403245, 117.171547)"><g><path d="M 22.109375 0.484375 C 18.515625 0.484375 15.296875 -0.0976562 12.453125 -1.265625 C 9.609375 -2.429688 7.332031 -4.15625 5.625 -6.4375 C 3.925781 -8.71875 3.03125 -11.46875 2.9375 -14.6875 L 15.671875 -14.6875 C 15.859375 -12.875 16.488281 -11.488281 17.5625 -10.53125 C 18.632812 -9.570312 20.03125 -9.09375 21.75 -9.09375 C 23.519531 -9.09375 24.914062 -9.5 25.9375 -10.3125 C 26.96875 -11.132812 27.484375 -12.265625 27.484375 -13.703125 C 27.484375 -14.921875 27.078125 -15.925781 26.265625 -16.71875 C 25.453125 -17.507812 24.445312 -18.160156 23.25 -18.671875 C 22.0625 -19.191406 20.375 -19.773438 18.1875 -20.421875 C 15.019531 -21.398438 12.429688 -22.378906 10.421875 -23.359375 C 8.421875 -24.335938 6.695312 -25.78125 5.25 -27.6875 C 3.800781 -29.601562 3.078125 -32.101562 3.078125 -35.1875 C 3.078125 -39.757812 4.734375 -43.335938 8.046875 -45.921875 C 11.359375 -48.515625 15.671875 -49.8125 20.984375 -49.8125 C 26.390625 -49.8125 30.75 -48.515625 34.0625 -45.921875 C 37.375 -43.335938 39.148438 -39.734375 39.390625 -35.109375 L 26.4375 -35.109375 C 26.34375 -36.703125 25.757812 -37.953125 24.6875 -38.859375 C 23.613281 -39.765625 22.238281 -40.21875 20.5625 -40.21875 C 19.113281 -40.21875 17.945312 -39.832031 17.0625 -39.0625 C 16.175781 -38.300781 15.734375 -37.195312 15.734375 -35.75 C 15.734375 -34.164062 16.476562 -32.925781 17.96875 -32.03125 C 19.46875 -31.144531 21.800781 -30.191406 24.96875 -29.171875 C 28.144531 -28.097656 30.722656 -27.070312 32.703125 -26.09375 C 34.679688 -25.113281 36.394531 -23.691406 37.84375 -21.828125 C 39.289062 -19.960938 40.015625 -17.5625 40.015625 -14.625 C 40.015625 -11.820312 39.300781 -9.273438 37.875 -6.984375 C 36.457031 -4.703125 34.394531 -2.882812 31.6875 -1.53125 C 28.976562 -0.1875 25.785156 0.484375 22.109375 0.484375 Z M 22.109375 0.484375 "/></g></g></g></svg>