<svg xmlns="http://www.w3.org/2000/svg" xmlns:xlink="http://www.w3.org/1999/xlink" width="800" zoomAndPan="magnify" viewBox="0 0 600 187.499995" height="250" preserveAspectRatio="xMidYMid meet" version="1.0"><defs><g/><clipPath id="9f9f6e98fe"><path d="M 0.796875 0 L 599.199219 0 L 599.199219 187 L 0.796875 187 Z M 0.796875 0 " clip-rule="nonzero"/></clipPath><clipPath id="72ebf162dd"><path d="M 118 61 L 164.621094 61 L 164.621094 108 L 118 108 Z M 118 61 " clip-rule="nonzero"/></clipPath><clipPath id="c6f0b49450"><path d="M 71 25.625 L 108 25.625 L 108 57 L 71 57 Z M 71 25.625 " clip-rule="nonzero"/></clipPath><clipPath id="8857c592cb"><path d="M 30.730469 55 L 77 55 L 77 102 L 30.730469 102 Z M 30.730469 55 " clip-rule="nonzero"/></clipPath><clipPath id="506ac94cc8"><rect x="0" width="419" y="0" height="113"/></clipPath></defs><g clip-path="url(#9f9f6e98fe)"><path fill="#ffffff" d="M 0.796875 0 L 599.203125 0 L 599.203125 187 L 0.796875 187 Z M 0.796875 0 " fill-opacity="1" fill-rule="nonzero"/><path fill="#ffffff" d="M 0.796875 0 L 599.203125 0 L 599.203125 187 L 0.796875 187 Z M 0.796875 0 " fill-opacity="1" fill-rule="nonzero"/></g><path fill="#e6e6e6" d="M 118.398438 124.753906 C 118 124.753906 117.601562 124.59375 117.28125 124.277344 C 116.644531 123.644531 116.722656 122.613281 117.363281 121.976562 L 136.726562 104.0625 C 137.367188 103.425781 138.402344 103.507812 138.960938 104.140625 C 139.597656 104.773438 139.519531 105.726562 138.878906 106.359375 L 119.511719 124.355469 C 119.195312 124.59375 118.796875 124.753906 118.398438 124.753906 Z M 88.671875 123.167969 C 88.273438 123.167969 87.953125 123.007812 87.632812 122.769531 L 60.296875 99.78125 C 59.582031 99.226562 59.5 98.273438 60.058594 97.558594 C 60.617188 96.925781 61.652344 96.847656 62.371094 97.402344 L 89.707031 120.390625 C 90.34375 120.945312 90.503906 121.898438 89.867188 122.613281 C 89.546875 123.007812 89.148438 123.167969 88.671875 123.167969 Z M 119.992188 82.972656 C 119.910156 82.972656 119.753906 82.972656 119.671875 82.972656 L 73.6875 72.351562 C 72.808594 72.191406 72.332031 71.320312 72.492188 70.449219 C 72.652344 69.65625 73.527344 69.101562 74.40625 69.257812 L 120.390625 79.882812 C 121.1875 80.039062 121.746094 80.914062 121.585938 81.785156 C 121.425781 82.496094 120.710938 82.972656 119.992188 82.972656 Z M 119.992188 82.972656 " fill-opacity="1" fill-rule="evenodd"/><g clip-path="url(#72ebf162dd)"><path fill="#9900cc" d="M 141.511719 107.074219 C 135.292969 107.074219 129.554688 104.695312 125.171875 100.335938 C 120.789062 95.976562 118.398438 90.265625 118.398438 84.082031 C 118.398438 77.898438 120.789062 72.113281 125.171875 67.753906 C 129.554688 63.472656 135.292969 61.09375 141.511719 61.09375 C 154.261719 61.09375 164.621094 71.398438 164.621094 84.082031 C 164.621094 96.769531 154.261719 107.074219 141.511719 107.074219 Z M 141.511719 107.074219 " fill-opacity="1" fill-rule="evenodd"/></g><path fill="#ffe600" d="M 141.511719 107.074219 C 134.976562 107.074219 128.996094 104.535156 124.695312 99.9375 C 124.136719 99.304688 124.136719 98.351562 124.695312 97.71875 C 127.085938 95.339844 129.875 94.070312 132.742188 94.070312 L 134.335938 94.070312 C 134.894531 94.070312 135.375 94.390625 135.691406 94.785156 C 137.046875 96.847656 139.4375 98.035156 142.066406 98.035156 C 144.378906 98.035156 146.851562 96.769531 148.125 94.785156 C 148.445312 94.390625 148.921875 94.070312 149.480469 94.070312 L 150.039062 94.070312 C 153.144531 94.070312 156.09375 95.421875 158.167969 97.796875 C 158.644531 98.433594 158.644531 99.382812 158.085938 99.9375 C 153.703125 104.617188 147.964844 107.074219 141.511719 107.074219 Z M 141.511719 107.074219 " fill-opacity="1" fill-rule="evenodd"/><path fill="#ffcc99" d="M 141.511719 94.390625 C 135.453125 94.390625 130.671875 89.632812 130.671875 83.527344 L 130.671875 79.566406 C 130.671875 73.699219 135.613281 68.703125 141.511719 68.703125 C 147.40625 68.703125 152.429688 73.699219 152.429688 79.566406 L 152.429688 83.527344 C 152.429688 89.632812 147.648438 94.390625 141.511719 94.390625 Z M 141.511719 94.390625 " fill-opacity="1" fill-rule="evenodd"/><g clip-path="url(#c6f0b49450)"><path fill="#009933" d="M 97.4375 56.652344 C 96.71875 56.652344 96.082031 56.496094 95.445312 56.175781 L 74.484375 46.664062 C 73.128906 46.109375 72.171875 45.078125 71.773438 43.730469 C 71.375 42.542969 71.457031 41.113281 72.011719 39.847656 L 77.113281 28.746094 C 77.671875 27.480469 78.628906 26.527344 79.984375 25.972656 C 81.257812 25.496094 82.691406 25.578125 83.96875 26.050781 C 83.96875 26.050781 83.96875 26.050781 83.96875 26.132812 L 104.691406 35.644531 C 105.964844 36.199219 106.921875 37.152344 107.480469 38.5 C 107.957031 39.765625 107.878906 41.195312 107.398438 42.460938 C 107.398438 42.460938 107.398438 42.460938 107.320312 42.460938 L 102.058594 53.878906 C 102.058594 53.878906 102.058594 53.878906 101.980469 53.878906 C 101.421875 54.988281 100.386719 55.941406 99.191406 56.335938 C 98.632812 56.496094 98.074219 56.652344 97.4375 56.652344 Z M 74.960938 41.113281 C 74.722656 41.671875 74.722656 42.226562 74.882812 42.78125 C 74.960938 43.253906 75.28125 43.574219 75.757812 43.730469 C 75.757812 43.730469 75.757812 43.730469 75.757812 43.808594 L 96.800781 53.324219 C 97.199219 53.480469 97.675781 53.480469 98.15625 53.324219 C 98.632812 53.164062 98.953125 52.847656 99.191406 52.453125 L 104.449219 41.113281 C 104.691406 40.640625 104.691406 40.085938 104.53125 39.609375 C 104.292969 39.054688 103.972656 38.738281 103.414062 38.5 L 82.691406 28.984375 C 82.214844 28.746094 81.65625 28.746094 81.097656 28.90625 C 80.621094 29.144531 80.222656 29.460938 80.0625 30.015625 Z M 74.960938 41.113281 " fill-opacity="1" fill-rule="evenodd"/></g><path fill="#ff3131" d="M 110.90625 71.714844 C 110.1875 71.714844 109.472656 71.558594 108.753906 71.242188 C 108.753906 71.242188 108.753906 71.242188 108.675781 71.242188 L 88.03125 61.726562 C 86.757812 61.171875 85.722656 60.140625 85.242188 58.875 C 84.765625 57.605469 84.765625 56.175781 85.324219 54.910156 C 85.324219 54.910156 85.324219 54.910156 85.324219 54.828125 L 90.664062 43.492188 C 90.664062 43.492188 90.664062 43.492188 90.664062 43.414062 C 91.222656 42.304688 92.257812 41.433594 93.53125 40.957031 C 94.808594 40.558594 96.160156 40.558594 97.277344 41.113281 L 118.238281 50.628906 C 118.316406 50.628906 118.316406 50.707031 118.316406 50.707031 C 120.710938 51.898438 121.746094 54.910156 120.628906 57.445312 C 120.628906 57.445312 120.628906 57.527344 120.628906 57.527344 L 115.609375 68.625 C 115.050781 69.894531 114.015625 70.84375 112.738281 71.320312 C 112.179688 71.558594 111.542969 71.714844 110.90625 71.714844 Z M 110.03125 68.308594 C 110.507812 68.546875 111.066406 68.546875 111.625 68.386719 C 112.101562 68.148438 112.5 67.832031 112.660156 67.277344 L 117.761719 56.175781 C 118.238281 55.066406 117.679688 53.957031 116.882812 53.480469 L 95.921875 44.046875 C 95.921875 44.046875 95.921875 43.96875 95.921875 43.96875 C 95.523438 43.808594 95.046875 43.808594 94.566406 43.96875 C 94.089844 44.128906 93.769531 44.445312 93.53125 44.839844 L 88.273438 56.175781 C 88.03125 56.652344 88.03125 57.207031 88.191406 57.761719 C 88.429688 58.238281 88.75 58.636719 89.308594 58.792969 C 89.308594 58.792969 89.308594 58.792969 89.308594 58.875 Z M 110.03125 68.308594 " fill-opacity="1" fill-rule="evenodd"/><path fill="#9900cc" d="M 102.777344 160.980469 C 96.558594 160.980469 90.742188 158.605469 86.359375 154.242188 C 82.054688 149.882812 79.664062 144.175781 79.664062 137.992188 C 79.664062 131.808594 82.054688 126.019531 86.359375 121.660156 C 90.742188 117.378906 96.558594 115 102.777344 115 C 115.527344 115 125.890625 125.308594 125.890625 137.992188 C 125.890625 150.675781 115.527344 160.980469 102.777344 160.980469 Z M 102.777344 160.980469 " fill-opacity="1" fill-rule="evenodd"/><path fill="#ffe600" d="M 102.777344 160.980469 C 96.242188 160.980469 90.265625 158.445312 85.882812 153.847656 C 85.324219 153.214844 85.324219 152.261719 85.960938 151.628906 C 88.351562 149.25 91.140625 147.980469 93.929688 147.980469 L 95.523438 147.980469 C 96.082031 147.980469 96.558594 148.296875 96.878906 148.695312 C 98.234375 150.753906 100.703125 151.945312 103.253906 151.945312 C 105.566406 151.945312 108.035156 150.675781 109.390625 148.695312 C 109.632812 148.296875 110.1875 147.980469 110.667969 147.980469 L 111.226562 147.980469 C 114.414062 147.980469 117.28125 149.328125 119.355469 151.707031 C 119.910156 152.339844 119.832031 153.292969 119.273438 153.847656 C 114.972656 158.523438 109.234375 160.980469 102.777344 160.980469 Z M 102.777344 160.980469 " fill-opacity="1" fill-rule="evenodd"/><path fill="#ffcc99" d="M 102.777344 148.296875 C 96.640625 148.296875 91.859375 143.542969 91.859375 137.4375 L 91.859375 133.472656 C 91.859375 127.605469 96.878906 122.613281 102.777344 122.613281 C 108.675781 122.613281 113.617188 127.605469 113.617188 133.472656 L 113.617188 137.4375 C 113.617188 143.542969 108.835938 148.296875 102.777344 148.296875 Z M 102.777344 148.296875 " fill-opacity="1" fill-rule="evenodd"/><g clip-path="url(#8857c592cb)"><path fill="#9900cc" d="M 53.84375 101.523438 C 47.625 101.523438 41.886719 99.144531 37.503906 94.785156 C 33.121094 90.425781 30.730469 84.71875 30.730469 78.535156 C 30.730469 72.351562 33.121094 66.5625 37.503906 62.203125 C 41.886719 57.921875 47.625 55.542969 53.84375 55.542969 C 66.59375 55.542969 76.953125 65.847656 76.953125 78.535156 C 76.953125 91.21875 66.59375 101.523438 53.84375 101.523438 Z M 53.84375 101.523438 " fill-opacity="1" fill-rule="evenodd"/></g><path fill="#ffe600" d="M 53.84375 101.523438 C 47.308594 101.523438 41.328125 98.988281 37.027344 94.390625 C 36.46875 93.753906 36.46875 92.804688 37.027344 92.167969 C 39.417969 89.792969 42.207031 88.523438 45.074219 88.523438 L 46.667969 88.523438 C 47.226562 88.523438 47.707031 88.839844 48.023438 89.234375 C 49.378906 91.296875 51.769531 92.488281 54.398438 92.488281 C 56.710938 92.488281 59.183594 91.21875 60.457031 89.234375 C 60.777344 88.839844 61.253906 88.523438 61.8125 88.523438 L 62.371094 88.523438 C 65.476562 88.523438 68.425781 89.871094 70.5 92.25 C 70.976562 92.882812 70.976562 93.835938 70.417969 94.390625 C 66.035156 99.066406 60.296875 101.523438 53.84375 101.523438 Z M 53.84375 101.523438 " fill-opacity="1" fill-rule="evenodd"/><path fill="#ffcc99" d="M 53.84375 88.839844 C 47.785156 88.839844 43.003906 84.082031 43.003906 77.980469 L 43.003906 74.015625 C 43.003906 68.148438 47.945312 63.152344 53.84375 63.152344 C 59.738281 63.152344 64.761719 68.148438 64.761719 74.015625 L 64.761719 77.980469 C 64.761719 84.082031 59.980469 88.839844 53.84375 88.839844 Z M 53.84375 88.839844 " fill-opacity="1" fill-rule="evenodd"/><g transform="matrix(1, 0, 0, 1, 167, 37)"><g clip-path="url(#506ac94cc8)"><g fill="#000000" fill-opacity="1"><g transform="translate(1.07013, 83.801384)"><g><path d="M 33.515625 0 L 21.859375 -21.140625 L 18.59375 -21.140625 L 18.59375 0 L 4.953125 0 L 4.953125 -56 L 27.84375 -56 C 32.257812 -56 36.019531 -55.226562 39.125 -53.6875 C 42.238281 -52.144531 44.566406 -50.03125 46.109375 -47.34375 C 47.648438 -44.664062 48.421875 -41.675781 48.421875 -38.375 C 48.421875 -34.65625 47.367188 -31.332031 45.265625 -28.40625 C 43.171875 -25.476562 40.078125 -23.398438 35.984375 -22.171875 L 48.90625 0 Z M 18.59375 -30.796875 L 27.046875 -30.796875 C 29.546875 -30.796875 31.421875 -31.40625 32.671875 -32.625 C 33.921875 -33.851562 34.546875 -35.582031 34.546875 -37.8125 C 34.546875 -39.9375 33.921875 -41.609375 32.671875 -42.828125 C 31.421875 -44.054688 29.546875 -44.671875 27.046875 -44.671875 L 18.59375 -44.671875 Z M 18.59375 -30.796875 "/></g></g></g><g fill="#000000" fill-opacity="1"><g transform="translate(51.324484, 83.801384)"><g><path d="M 18.59375 -45.078125 L 18.59375 -33.75 L 36.859375 -33.75 L 36.859375 -23.21875 L 18.59375 -23.21875 L 18.59375 -10.9375 L 39.25 -10.9375 L 39.25 0 L 4.953125 0 L 4.953125 -56 L 39.25 -56 L 39.25 -45.078125 Z M 18.59375 -45.078125 "/></g></g></g><g fill="#000000" fill-opacity="1"><g transform="translate(92.724462, 83.801384)"><g><path d="M 41.40625 -56 L 41.40625 -45.078125 L 18.59375 -45.078125 L 18.59375 -33.265625 L 35.65625 -33.265625 L 35.65625 -22.65625 L 18.59375 -22.65625 L 18.59375 0 L 4.953125 0 L 4.953125 -56 Z M 41.40625 -56 "/></g></g></g><g fill="#000000" fill-opacity="1"><g transform="translate(134.603047, 83.801384)"><g><path d="M 18.59375 -45.078125 L 18.59375 -33.75 L 36.859375 -33.75 L 36.859375 -23.21875 L 18.59375 -23.21875 L 18.59375 -10.9375 L 39.25 -10.9375 L 39.25 0 L 4.953125 0 L 4.953125 -56 L 39.25 -56 L 39.25 -45.078125 Z M 18.59375 -45.078125 "/></g></g></g><g fill="#000000" fill-opacity="1"><g transform="translate(176.003025, 83.801384)"><g><path d="M 33.515625 0 L 21.859375 -21.140625 L 18.59375 -21.140625 L 18.59375 0 L 4.953125 0 L 4.953125 -56 L 27.84375 -56 C 32.257812 -56 36.019531 -55.226562 39.125 -53.6875 C 42.238281 -52.144531 44.566406 -50.03125 46.109375 -47.34375 C 47.648438 -44.664062 48.421875 -41.675781 48.421875 -38.375 C 48.421875 -34.65625 47.367188 -31.332031 45.265625 -28.40625 C 43.171875 -25.476562 40.078125 -23.398438 35.984375 -22.171875 L 48.90625 0 Z M 18.59375 -30.796875 L 27.046875 -30.796875 C 29.546875 -30.796875 31.421875 -31.40625 32.671875 -32.625 C 33.921875 -33.851562 34.546875 -35.582031 34.546875 -37.8125 C 34.546875 -39.9375 33.921875 -41.609375 32.671875 -42.828125 C 31.421875 -44.054688 29.546875 -44.671875 27.046875 -44.671875 L 18.59375 -44.671875 Z M 18.59375 -30.796875 "/></g></g></g><g fill="#000000" fill-opacity="1"><g transform="translate(226.257393, 83.801384)"><g><path d="M 33.515625 0 L 21.859375 -21.140625 L 18.59375 -21.140625 L 18.59375 0 L 4.953125 0 L 4.953125 -56 L 27.84375 -56 C 32.257812 -56 36.019531 -55.226562 39.125 -53.6875 C 42.238281 -52.144531 44.566406 -50.03125 46.109375 -47.34375 C 47.648438 -44.664062 48.421875 -41.675781 48.421875 -38.375 C 48.421875 -34.65625 47.367188 -31.332031 45.265625 -28.40625 C 43.171875 -25.476562 40.078125 -23.398438 35.984375 -22.171875 L 48.90625 0 Z M 18.59375 -30.796875 L 27.046875 -30.796875 C 29.546875 -30.796875 31.421875 -31.40625 32.671875 -32.625 C 33.921875 -33.851562 34.546875 -35.582031 34.546875 -37.8125 C 34.546875 -39.9375 33.921875 -41.609375 32.671875 -42.828125 C 31.421875 -44.054688 29.546875 -44.671875 27.046875 -44.671875 L 18.59375 -44.671875 Z M 18.59375 -30.796875 "/></g></g></g><g fill="#000000" fill-opacity="1"><g transform="translate(276.51172, 83.801384)"><g><path d="M 39.8125 -9.890625 L 18.90625 -9.890625 L 15.5625 0 L 1.28125 0 L 21.546875 -56 L 37.34375 -56 L 57.609375 0 L 43.15625 0 Z M 36.296875 -20.421875 L 29.359375 -40.921875 L 22.5 -20.421875 Z M 36.296875 -20.421875 "/></g></g></g><g fill="#000000" fill-opacity="1"><g transform="translate(333.546474, 83.801384)"><g><path d="M 18.59375 -10.53125 L 36.453125 -10.53125 L 36.453125 0 L 4.953125 0 L 4.953125 -56 L 18.59375 -56 Z M 18.59375 -10.53125 "/></g></g></g><g fill="#000000" fill-opacity="1"><g transform="translate(369.841209, 83.801384)"><g><path d="M 25.203125 0.5625 C 21.109375 0.5625 17.4375 -0.101562 14.1875 -1.4375 C 10.945312 -2.769531 8.359375 -4.738281 6.421875 -7.34375 C 4.484375 -9.945312 3.457031 -13.082031 3.34375 -16.75 L 17.875 -16.75 C 18.082031 -14.675781 18.796875 -13.09375 20.015625 -12 C 21.242188 -10.914062 22.84375 -10.375 24.8125 -10.375 C 26.832031 -10.375 28.425781 -10.835938 29.59375 -11.765625 C 30.769531 -12.691406 31.359375 -13.984375 31.359375 -15.640625 C 31.359375 -17.023438 30.890625 -18.164062 29.953125 -19.0625 C 29.023438 -19.96875 27.882812 -20.710938 26.53125 -21.296875 C 25.175781 -21.878906 23.25 -22.546875 20.75 -23.296875 C 17.125 -24.410156 14.164062 -25.523438 11.875 -26.640625 C 9.59375 -27.765625 7.628906 -29.414062 5.984375 -31.59375 C 4.335938 -33.769531 3.515625 -36.613281 3.515625 -40.125 C 3.515625 -45.34375 5.398438 -49.425781 9.171875 -52.375 C 12.953125 -55.320312 17.875 -56.796875 23.9375 -56.796875 C 30.101562 -56.796875 35.070312 -55.320312 38.84375 -52.375 C 42.625 -49.425781 44.648438 -45.316406 44.921875 -40.046875 L 30.15625 -40.046875 C 30.050781 -41.859375 29.382812 -43.28125 28.15625 -44.3125 C 26.9375 -45.351562 25.367188 -45.875 23.453125 -45.875 C 21.804688 -45.875 20.476562 -45.429688 19.46875 -44.546875 C 18.457031 -43.671875 17.953125 -42.410156 17.953125 -40.765625 C 17.953125 -38.960938 18.800781 -37.554688 20.5 -36.546875 C 22.207031 -35.535156 24.867188 -34.441406 28.484375 -33.265625 C 32.097656 -32.046875 35.035156 -30.875 37.296875 -29.75 C 39.554688 -28.632812 41.507812 -27.015625 43.15625 -24.890625 C 44.8125 -22.765625 45.640625 -20.023438 45.640625 -16.671875 C 45.640625 -13.484375 44.828125 -10.582031 43.203125 -7.96875 C 41.578125 -5.363281 39.222656 -3.289062 36.140625 -1.75 C 33.054688 -0.207031 29.410156 0.5625 25.203125 0.5625 Z M 25.203125 0.5625 "/></g></g></g></g></g></svg>