<svg xmlns="http://www.w3.org/2000/svg" xmlns:xlink="http://www.w3.org/1999/xlink" width="800" zoomAndPan="magnify" viewBox="0 0 600 187.499995" height="250" preserveAspectRatio="xMidYMid meet" version="1.0"><defs><g/><clipPath id="bd5174254b"><path d="M 0.796875 0 L 599.199219 0 L 599.199219 187 L 0.796875 187 Z M 0.796875 0 " clip-rule="nonzero"/></clipPath><clipPath id="50f55e9aef"><path d="M 372 61 L 430 61 L 430 130.902344 L 372 130.902344 Z M 372 61 " clip-rule="nonzero"/></clipPath><clipPath id="e862033ec9"><path d="M 493 62 L 561 62 L 561 130.902344 L 493 130.902344 Z M 493 62 " clip-rule="nonzero"/></clipPath><clipPath id="8c7f0457e3"><rect x="0" width="323" y="0" height="99"/></clipPath></defs><g clip-path="url(#bd5174254b)"><path fill="#ffffff" d="M 0.796875 0 L 599.203125 0 L 599.203125 187 L 0.796875 187 Z M 0.796875 0 " fill-opacity="1" fill-rule="nonzero"/><path fill="#ffffff" d="M 0.796875 0 L 599.203125 0 L 599.203125 187 L 0.796875 187 Z M 0.796875 0 " fill-opacity="1" fill-rule="nonzero"/></g><path fill="#0071bc" d="M 565.503906 57.375 C 537.457031 56.101562 535.421875 65.238281 529.863281 79.902344 L 519.003906 81.175781 L 516.457031 91.289062 C 516.457031 91.289062 522.183594 87.253906 523.796875 88.484375 C 524.644531 89.164062 523.03125 92.269531 523.03125 92.269531 L 526.34375 96.050781 L 526.300781 96.09375 L 526.808594 96.601562 L 526.851562 96.5625 L 530.628906 99.875 C 530.628906 99.875 533.765625 98.261719 534.402344 99.109375 C 535.632812 100.683594 531.601562 106.464844 531.601562 106.464844 L 541.703125 103.914062 L 542.972656 93.03125 C 557.65625 87.507812 566.777344 85.46875 565.503906 57.375 Z M 556.382812 73.738281 C 554.941406 82.027344 544.246094 82.027344 542.804688 73.738281 C 542.761719 73.484375 542.761719 73.183594 542.804688 72.929688 C 544.246094 64.644531 554.941406 64.644531 556.382812 72.929688 C 556.425781 73.183594 556.425781 73.441406 556.382812 73.738281 Z M 556.382812 73.738281 " fill-opacity="1" fill-rule="nonzero"/><path fill="#f15a24" d="M 520.359375 96.859375 C 521.929688 95.285156 524.519531 95.285156 526.085938 96.859375 C 527.65625 98.429688 527.65625 101.023438 526.085938 102.597656 C 524.519531 104.167969 517.515625 105.441406 517.515625 105.441406 C 517.515625 105.441406 518.789062 98.429688 520.359375 96.859375 Z M 520.359375 96.859375 " fill-opacity="1" fill-rule="nonzero"/><g clip-path="url(#50f55e9aef)"><path fill="#009245" d="M 429.902344 109.054688 C 429.902344 122.527344 419.167969 130.902344 401.855469 130.902344 C 386.960938 130.902344 377.5 125.503906 373.003906 114.367188 L 372.238281 112.539062 L 385.773438 105.527344 L 386.664062 107.738281 C 388.785156 113.050781 394.558594 116.195312 402.023438 116.195312 C 404.867188 116.195312 414.074219 115.6875 414.074219 109.054688 C 414.074219 107.652344 414.074219 103.445312 401.726562 102.085938 C 388.785156 100.554688 375.589844 96.859375 375.589844 81.261719 C 375.589844 67.492188 388.660156 61.199219 401.601562 61.117188 C 414.414062 61.117188 423.453125 65.789062 427.78125 74.589844 L 428.710938 76.457031 L 415.8125 83.089844 L 414.796875 81.34375 C 413.015625 78.539062 407.964844 75.523438 401.941406 75.523438 C 395.277344 75.523438 391.289062 77.777344 391.289062 81.601562 C 391.289062 84.660156 394.601562 86.234375 403.128906 87.253906 C 411.824219 88.316406 429.902344 90.527344 429.902344 109.054688 Z M 429.902344 109.054688 " fill-opacity="1" fill-rule="nonzero"/></g><path fill="#fbb03b" d="M 437.621094 63.199219 L 488.070312 63.199219 L 488.070312 78.796875 L 453.449219 78.796875 L 453.449219 88.699219 L 486.839844 88.699219 L 486.839844 103.828125 L 453.449219 103.828125 L 453.449219 113.476562 L 488.070312 113.476562 L 488.070312 129.242188 L 437.621094 129.242188 Z M 437.621094 63.199219 " fill-opacity="1" fill-rule="nonzero"/><g clip-path="url(#e862033ec9)"><path fill="#ed1c24" d="M 559.863281 87.210938 C 560.582031 90.226562 560.964844 93.414062 560.964844 96.644531 C 560.792969 113.601562 550.273438 130.730469 527.191406 130.730469 C 516.542969 130.730469 507.671875 127.074219 501.605469 120.148438 C 496.261719 114.070312 493.332031 105.742188 493.332031 96.6875 C 493.332031 87.636719 496.300781 79.179688 501.734375 72.929688 C 507.886719 65.789062 516.710938 62.007812 527.234375 62.007812 C 530.289062 62.007812 533.214844 62.347656 535.929688 62.984375 C 532.621094 66.683594 530.796875 71.484375 528.761719 76.96875 C 528.25 76.925781 527.742188 76.925781 527.234375 76.925781 C 521.929688 76.925781 517.644531 78.582031 514.460938 81.855469 C 510.898438 85.511719 508.945312 90.992188 509.117188 96.859375 C 509.242188 101.277344 510.898438 115.769531 527.234375 115.769531 C 540.300781 115.769531 545.097656 105.953125 545.265625 96.773438 C 545.265625 96.050781 545.265625 95.285156 545.222656 94.5625 L 545.859375 94.308594 C 551.332031 92.226562 556.128906 90.398438 559.863281 87.210938 Z M 559.863281 87.210938 " fill-opacity="1" fill-rule="nonzero"/></g><g transform="matrix(1, 0, 0, 1, 38, 44)"><g clip-path="url(#8c7f0457e3)"><g fill="#000000" fill-opacity="1"><g transform="translate(0.649145, 73.437762)"><g><path d="M 27.5625 0.484375 C 22.9375 0.484375 18.703125 -0.582031 14.859375 -2.71875 C 11.015625 -4.863281 7.960938 -7.859375 5.703125 -11.703125 C 3.441406 -15.554688 2.3125 -19.882812 2.3125 -24.6875 C 2.3125 -29.488281 3.441406 -33.800781 5.703125 -37.625 C 7.960938 -41.445312 11.015625 -44.429688 14.859375 -46.578125 C 18.703125 -48.722656 22.9375 -49.796875 27.5625 -49.796875 C 32.175781 -49.796875 36.40625 -48.722656 40.25 -46.578125 C 44.09375 -44.429688 47.117188 -41.445312 49.328125 -37.625 C 51.546875 -33.800781 52.65625 -29.488281 52.65625 -24.6875 C 52.65625 -19.882812 51.535156 -15.554688 49.296875 -11.703125 C 47.066406 -7.859375 44.039062 -4.863281 40.21875 -2.71875 C 36.394531 -0.582031 32.175781 0.484375 27.5625 0.484375 Z M 27.5625 -10.421875 C 31.476562 -10.421875 34.613281 -11.722656 36.96875 -14.328125 C 39.320312 -16.941406 40.5 -20.394531 40.5 -24.6875 C 40.5 -29.019531 39.320312 -32.476562 36.96875 -35.0625 C 34.613281 -37.65625 31.476562 -38.953125 27.5625 -38.953125 C 23.59375 -38.953125 20.429688 -37.671875 18.078125 -35.109375 C 15.722656 -32.546875 14.546875 -29.070312 14.546875 -24.6875 C 14.546875 -20.351562 15.722656 -16.890625 18.078125 -14.296875 C 20.429688 -11.710938 23.59375 -10.421875 27.5625 -10.421875 Z M 27.5625 -10.421875 "/></g></g></g><g fill="#000000" fill-opacity="1"><g transform="translate(54.079939, 73.437762)"><g><path d="M 29.375 0 L 19.15625 -18.53125 L 16.296875 -18.53125 L 16.296875 0 L 4.34375 0 L 4.34375 -49.09375 L 24.40625 -49.09375 C 28.28125 -49.09375 31.578125 -48.414062 34.296875 -47.0625 C 37.023438 -45.71875 39.066406 -43.863281 40.421875 -41.5 C 41.773438 -39.144531 42.453125 -36.523438 42.453125 -33.640625 C 42.453125 -30.378906 41.53125 -27.460938 39.6875 -24.890625 C 37.84375 -22.328125 35.128906 -20.507812 31.546875 -19.4375 L 42.875 0 Z M 16.296875 -27 L 23.703125 -27 C 25.898438 -27 27.546875 -27.535156 28.640625 -28.609375 C 29.734375 -29.679688 30.28125 -31.195312 30.28125 -33.15625 C 30.28125 -35.019531 29.734375 -36.488281 28.640625 -37.5625 C 27.546875 -38.632812 25.898438 -39.171875 23.703125 -39.171875 L 16.296875 -39.171875 Z M 16.296875 -27 "/></g></g></g><g fill="#000000" fill-opacity="1"><g transform="translate(98.139313, 73.437762)"><g><path d="M 36.921875 -33.5625 C 36.035156 -35.195312 34.765625 -36.445312 33.109375 -37.3125 C 31.453125 -38.175781 29.507812 -38.609375 27.28125 -38.609375 C 23.40625 -38.609375 20.300781 -37.335938 17.96875 -34.796875 C 15.644531 -32.253906 14.484375 -28.863281 14.484375 -24.625 C 14.484375 -20.09375 15.707031 -16.554688 18.15625 -14.015625 C 20.601562 -11.472656 23.96875 -10.203125 28.25 -10.203125 C 31.1875 -10.203125 33.671875 -10.945312 35.703125 -12.4375 C 37.734375 -13.9375 39.210938 -16.085938 40.140625 -18.890625 L 24.96875 -18.890625 L 24.96875 -27.6875 L 50.984375 -27.6875 L 50.984375 -16.578125 C 50.097656 -13.585938 48.59375 -10.8125 46.46875 -8.25 C 44.351562 -5.6875 41.660156 -3.613281 38.390625 -2.03125 C 35.128906 -0.445312 31.445312 0.34375 27.34375 0.34375 C 22.5 0.34375 18.175781 -0.710938 14.375 -2.828125 C 10.570312 -4.953125 7.609375 -7.898438 5.484375 -11.671875 C 3.367188 -15.453125 2.3125 -19.769531 2.3125 -24.625 C 2.3125 -29.46875 3.367188 -33.789062 5.484375 -37.59375 C 7.609375 -41.394531 10.554688 -44.351562 14.328125 -46.46875 C 18.109375 -48.59375 22.425781 -49.65625 27.28125 -49.65625 C 33.15625 -49.65625 38.109375 -48.234375 42.140625 -45.390625 C 46.171875 -42.546875 48.835938 -38.601562 50.140625 -33.5625 Z M 36.921875 -33.5625 "/></g></g></g><g fill="#000000" fill-opacity="1"><g transform="translate(149.891638, 73.437762)"><g><path d="M 34.90625 -8.671875 L 16.578125 -8.671875 L 13.640625 0 L 1.125 0 L 18.890625 -49.09375 L 32.734375 -49.09375 L 50.5 0 L 37.84375 0 Z M 31.828125 -17.90625 L 25.734375 -35.875 L 19.71875 -17.90625 Z M 31.828125 -17.90625 "/></g></g></g><g fill="#000000" fill-opacity="1"><g transform="translate(199.895572, 73.437762)"><g><path d="M 48.25 0 L 36.296875 0 L 16.296875 -30.28125 L 16.296875 0 L 4.34375 0 L 4.34375 -49.09375 L 16.296875 -49.09375 L 36.296875 -18.671875 L 36.296875 -49.09375 L 48.25 -49.09375 Z M 48.25 0 "/></g></g></g><g fill="#000000" fill-opacity="1"><g transform="translate(250.948529, 73.437762)"><g><path d="M 16.296875 -49.09375 L 16.296875 0 L 4.34375 0 L 4.34375 -49.09375 Z M 16.296875 -49.09375 "/></g></g></g><g fill="#000000" fill-opacity="1"><g transform="translate(270.040753, 73.437762)"><g><path d="M 2.3125 -24.625 C 2.3125 -29.46875 3.359375 -33.789062 5.453125 -37.59375 C 7.554688 -41.394531 10.484375 -44.351562 14.234375 -46.46875 C 17.984375 -48.59375 22.238281 -49.65625 27 -49.65625 C 32.820312 -49.65625 37.804688 -48.113281 41.953125 -45.03125 C 46.109375 -41.957031 48.882812 -37.765625 50.28125 -32.453125 L 37.140625 -32.453125 C 36.160156 -34.503906 34.769531 -36.066406 32.96875 -37.140625 C 31.175781 -38.210938 29.140625 -38.75 26.859375 -38.75 C 23.171875 -38.75 20.1875 -37.460938 17.90625 -34.890625 C 15.625 -32.328125 14.484375 -28.90625 14.484375 -24.625 C 14.484375 -20.332031 15.625 -16.898438 17.90625 -14.328125 C 20.1875 -11.765625 23.171875 -10.484375 26.859375 -10.484375 C 29.140625 -10.484375 31.175781 -11.019531 32.96875 -12.09375 C 34.769531 -13.164062 36.160156 -14.726562 37.140625 -16.78125 L 50.28125 -16.78125 C 48.882812 -11.46875 46.109375 -7.285156 41.953125 -4.234375 C 37.804688 -1.179688 32.820312 0.34375 27 0.34375 C 22.238281 0.34375 17.984375 -0.710938 14.234375 -2.828125 C 10.484375 -4.953125 7.554688 -7.898438 5.453125 -11.671875 C 3.359375 -15.453125 2.3125 -19.769531 2.3125 -24.625 Z M 2.3125 -24.625 "/></g></g></g></g></g></svg>